PathFileType	4	(X/Y/Z)	56_2_73_p1_0-245_filt_butterworth.trc
DataRate	CameraRate	NumFrames	NumMarkers	Units	OrigDataRate	OrigDataStartFrame	OrigNumFrames
50.0	50.0	5	27	m	50.0	183	245
Frame#	Time	RHip			RKnee			RAnkle			RBigToe			RSmallToe			RHeel			LHip			LKnee			LAnkle			LBigToe			LSmallToe			LHeel			Neck			Head			Nose			RShoulder			RElbow			RWrist			RThumb			RIndex			RPinky			LShoulder			LElbow			LWrist			LThumb			LIndex			LPinky			
		X1	Y1	Z1	X2	Y2	Z2	X3	Y3	Z3	X4	Y4	Z4	X5	Y5	Z5	X6	Y6	Z6	X7	Y7	Z7	X8	Y8	Z8	X9	Y9	Z9	X10	Y10	Z10	X11	Y11	Z11	X12	Y12	Z12	X13	Y13	Z13	X14	Y14	Z14	X15	Y15	Z15	X16	Y16	Z16	X17	Y17	Z17	X18	Y18	Z18	X19	Y19	Z19	X20	Y20	Z20	X21	Y21	Z21	X22	Y22	Z22	X23	Y23	Z23	X24	Y24	Z24	X25	Y25	Z25	X26	Y26	Z26	X27	Y27	Z27	
183	3.66	0.49665732849011723	0.29404082107799867	1.0322738499743904	0.4222933528442354	0.05597618570843005	0.8541224551918987	0.5032494444627644	-0.3787258268761958	0.9127298936460203	0.4035184128103365	-0.40669870018053633	0.7478674990011211	0.4872989010166717	-0.4289526276791211	0.7769390012569191	0.5256419616558421	-0.4604653398579379	0.98865082010299	0.30048881949139616	0.28218030298900376	1.0971006555926097	0.23900111705349059	0.07245182293007019	0.8768205816741633	0.30897174189981313	-0.3997999218476292	1.0142214372471072	0.24758164053702075	-0.39810958190004775	0.7947089454917828	0.22096178976620556	-0.4440548202129079	0.8843870614273469	0.3437261108856987	-0.47302978943594737	1.0763591906049723	0.28187188335289565	0.5393118516939309	0.8852399614854534	0.19003298141323283	0.8734524531333345	0.593875670141686	0.23427943191112544	0.6550093590345835	0.6790774597663647	0.41551396250509126	0.6234475635497891	0.8296484634850425	0.5275970712540818	0.3660827316001486	0.8820681982788179	0.35631696814397606	0.22627778371624735	0.7498289622144798	0.247686255093292	0.1941929623178348	0.6693969960487945	0.2500051887465647	0.16390239556068598	0.6665855649368243	0.3325933120322442	0.12248141046711575	0.7114371292015865	0.1127136890897161	0.5743673186562898	0.9183109746773584	0.1519458376530246	0.30658305325009255	0.9247312178051228	0.14501226377664075	0.18922671602293845	0.6889722069195157	0.1253994601172733	0.2004319258757319	0.5339759559275231	0.10341206615051556	0.181429791186101	0.5356786172986249	0.09569163198736691	0.12025029047591285	0.6148847989409547	
184	3.68	0.49559475892402194	0.29868854016841057	1.0292381401740096	0.4216249608609321	0.05864915688742628	0.8512898882541357	0.5044786002925651	-0.37881502603512635	0.9140452640464012	0.4111713745020985	-0.4128602774739841	0.7601495711001109	0.49197612083375647	-0.438200944560989	0.7883918793769334	0.525872795889834	-0.4570386555426845	0.9863158693096884	0.29874738814866264	0.2839084035878346	1.0927326813982858	0.2368456983941815	0.0762390633095269	0.8703593106558375	0.30834436071848104	-0.40044909084576197	1.0124720994561553	0.2484376823302724	-0.3989248094214133	0.7919935083291365	0.22141099012376547	-0.44370347626214435	0.8820639279416919	0.34353862475955943	-0.4739053543395021	1.0758762428696307	0.2818248007510619	0.5434404813468591	0.8839378362238395	0.1891754862899483	0.8778846148919623	0.5948824257345411	0.23421362084787908	0.6615382634309844	0.6797030204853778	0.4143856946561274	0.628559208697675	0.8322522966202034	0.5264221044242952	0.3722910577859478	0.8793700717824904	0.35934400046681014	0.23203239719080457	0.7490535423811624	0.24972569285713622	0.1817382651665102	0.6875634069743697	0.25332601897052004	0.15435907175246727	0.6807672185852571	0.3346974452267325	0.1188042510024927	0.7179701663777944	0.11112107130292523	0.5794161243924907	0.9196024713728624	0.15398150758826917	0.30776893082749207	0.9329707491742998	0.14647962310086732	0.18077113763696417	0.6991810186644454	0.13370155176553855	0.18236537033112046	0.5578406019047131	0.10987614023981807	0.1677886267663775	0.548480890873373	0.10143403614741112	0.11173103041261506	0.6205703427976104	
185	3.7	0.4942952468455745	0.302285178066086	1.0268610278203152	0.4207824825264862	0.06080710879995721	0.848982806807846	0.5052360945409238	-0.37890530948609635	0.915097402342411	0.4185669272199979	-0.4196507618561763	0.7740733417697325	0.4977722496164446	-0.4485080802351694	0.8030947359152885	0.5257826493862925	-0.45474143179523413	0.9845949008454251	0.29644278332061563	0.2855929020461364	1.0883512628898544	0.2340901684190424	0.07958643873746801	0.8637772103056861	0.3077219759468036	-0.4014478502116994	1.0110859869109672	0.24930802408454256	-0.40027083203007013	0.7900043949048557	0.22184988229863917	-0.44297101995700294	0.8804510557691161	0.34379537847590236	-0.47505032740910635	1.075305207026611	0.2816990049874702	0.5486253321891376	0.8832056202366962	0.1885935537243268	0.8850796742072817	0.5974890458122365	0.23342970830638404	0.6700980390863606	0.6821106573888724	0.4126973442461763	0.6353375680191743	0.8331244606466486	0.525863208964158	0.3788298128984407	0.8776781753382095	0.36392539145980074	0.234658404880528	0.7496732333592052	0.2539735871098113	0.16831128140029597	0.7066107496598577	0.26034776172477014	0.1429508093778634	0.6989686015286387	0.337318822697391	0.11356436078678617	0.727515436844793	0.10920539184388695	0.5869006742548786	0.9191663253893693	0.1558402286523358	0.31049219780407006	0.9399170443287761	0.14800512581593694	0.17557438968247907	0.7084877327824078	0.14229384247246987	0.16628851858254468	0.5813683054163367	0.11758314455409725	0.15578854820229687	0.5610927002266431	0.10741193885709824	0.10606512997947276	0.625583284194529	
186	3.72	0.49272346741565337	0.3051609225452253	1.0250611390439084	0.420448181154486	0.0626289438964791	0.8471277623683781	0.5056555865128586	-0.3787716505930554	0.9159186033097017	0.42506586402481594	-0.42624037232460843	0.7870480521380905	0.5036195061192439	-0.45729285442025813	0.8178499743342155	0.5252964034555694	-0.4531627922099475	0.9834791953598462	0.29318738111811954	0.2875874781947329	1.083873773414373	0.23113941286705594	0.08258492089527791	0.8575999153054741	0.30719416244555636	-0.4024299821031895	1.010222952508967	0.2500674991632865	-0.40187013443700387	0.7888403192961686	0.2221448356383185	-0.44203321848528215	0.8792324285963017	0.3444771281614813	-0.47623213453073754	1.074803076144101	0.28139536828701406	0.5563662644071838	0.883145563076885	0.18820732905793575	0.895161365270413	0.6022520763294782	0.23201566933500323	0.6814504292915836	0.6855670361468897	0.410868598847618	0.6442181203464772	0.832733513394949	0.5263069360073478	0.3860078720650145	0.8776958363312835	0.3707395091608573	0.23426007977065955	0.7527301027829096	0.2607448553102543	0.15651196611778245	0.7255619116980312	0.2706997967537325	0.13095322063017079	0.7198604705189822	0.341125521282212	0.10652826204157001	0.7402367725305689	0.10747621469292663	0.596722936426491	0.9171488771693366	0.15751553970975046	0.31427762972692685	0.9462519547095258	0.15033801762838936	0.17274547798129672	0.7189190914135327	0.15041151985687437	0.15398659680289903	0.6019393037510348	0.12571513665423278	0.14568998974016356	0.5737333627646181	0.11393890027584624	0.10106084324559958	0.6329559295693085	
187	3.74	0.4912400819177782	0.3081539720556323	1.023745914745118	0.42121008685246314	0.06407848080124945	0.8458748336277563	0.5059741212416613	-0.37843162272544634	0.916635921984783	0.4299665517949758	-0.43100689260050096	0.795571481885083	0.5082667859361655	-0.46173881502952563	0.8283709573262047	0.5245965226398543	-0.451868135040271	0.9831001442510179	0.2893568662463577	0.29002378336611045	1.0798485350745783	0.22842240954459225	0.08492827357259669	0.8531452915828367	0.3069012024612207	-0.4027905397883521	1.0100163206393034	0.25039345230065574	-0.40327413189930594	0.7881698779194304	0.22226105712453834	-0.4414226991588999	0.8780202904737359	0.3453801089512797	-0.4769288058921898	1.0744448588466209	0.2809373695736056	0.5672415839906817	0.8834194767114227	0.18819362847818155	0.9079226743596016	0.6089729947184059	0.23007179633616548	0.6959132905355597	0.6885640649697564	0.4091615671685611	0.6550071749761458	0.8318538756501324	0.5275476724498673	0.3936152525973288	0.8796050045213708	0.3794249491199674	0.23216083604199533	0.7583294608202781	0.2699421086372137	0.1477781068874952	0.743206252567137	0.2834747823269952	0.11936237290568502	0.741191290911156	0.3471934700600764	0.09831656386250687	0.7548136376214549	0.10649476052801349	0.6084587785752363	0.9144930808025099	0.15882965362297555	0.318693655915226	0.9529649131401317	0.1539229383987271	0.17119565907638995	0.7318382994507755	0.15787134051293417	0.14545473067350342	0.6198204357844419	0.13352878779822908	0.13773015755819312	0.5876385131738848	0.12055927905241316	0.09653185918518722	0.6445693049771779	
